<svg width="44" height="43" viewBox="0 0 44 43" fill="none" xmlns="http://www.w3.org/2000/svg">
<path d="M39.1111 4.3H28.8933C27.8667 1.806 25.1778 0 22 0C18.8222 0 16.1333 1.806 15.1067 4.3H4.88889C2.2 4.3 0 6.235 0 8.6V38.7C0 41.065 2.2 43 4.88889 43H39.1111C41.8 43 44 41.065 44 38.7V8.6C44 6.235 41.8 4.3 39.1111 4.3ZM22 4.3C23.3444 4.3 24.4444 5.2675 24.4444 6.45C24.4444 7.6325 23.3444 8.6 22 8.6C20.6556 8.6 19.5556 7.6325 19.5556 6.45C19.5556 5.2675 20.6556 4.3 22 4.3ZM22 12.9C26.0578 12.9 29.3333 15.781 29.3333 19.35C29.3333 22.919 26.0578 25.8 22 25.8C17.9422 25.8 14.6667 22.919 14.6667 19.35C14.6667 15.781 17.9422 12.9 22 12.9ZM36.6667 38.7H7.33333V35.69C7.33333 31.39 17.1111 29.025 22 29.025C26.8889 29.025 36.6667 31.39 36.6667 35.69V38.7Z" fill="#163760"/>
</svg>
